<svg version="1.1" id="Layer_1" xmlns="http://www.w3.org/2000/svg" xmlns:xlink="http://www.w3.org/1999/xlink" x="0px" y="0px"
	 width="100%" viewBox="0 0 512 512" enable-background="new 0 0 512 512" xml:space="preserve">
<path fill="#000000" opacity="1.000000" stroke="none" 
	d="
M0.999998,253.000000 
	C1.000000,169.035904 1.000000,85.071800 1.000000,1.053848 
	C171.557831,1.053848 342.115662,1.053848 513.000000,1.053848 
	C513.000000,84.688400 513.000000,168.377213 512.659546,252.652985 
	C511.417023,252.518173 510.443085,251.869553 509.623352,251.063995 
	C488.749023,230.550644 467.895508,210.016159 447.028503,189.495361 
	C427.705353,170.492813 408.369720,151.502960 389.041595,132.505493 
	C369.356934,113.157654 349.638916,93.843628 330.005096,74.444366 
	C318.392242,62.970253 306.769714,51.499523 295.417603,39.769787 
	C284.829132,28.829067 272.289856,22.552839 256.543243,22.088284 
	C243.117859,22.687542 231.668381,27.323166 222.312256,36.302544 
	C205.021729,52.896843 187.985016,69.756248 170.892044,86.555573 
	C152.609314,104.524231 134.397644,122.565155 116.129425,140.548615 
	C96.929276,159.449463 77.650032,178.270218 58.495865,197.217468 
	C40.492542,215.026337 22.618917,232.966278 4.638459,250.798355 
	C3.660097,251.768646 2.223361,252.276749 0.999998,253.000000 
z"/>
<path fill="#000000" opacity="1.000000" stroke="none" 
	d="
M513.000000,269.000000 
	C513.000000,350.298004 513.000000,431.596039 513.000000,512.947021 
	C342.442749,512.947021 171.885498,512.947021 1.000000,512.947021 
	C1.000000,431.978271 1.000000,350.956116 1.319346,269.254242 
	C2.051750,268.852020 2.561746,269.050079 2.863690,269.418640 
	C10.492773,278.730042 20.248390,279.152954 28.924379,270.595825 
	C33.527004,266.056274 38.225685,261.614136 42.935593,257.585724 
	C42.993332,314.527649 42.889553,371.012329 43.141239,427.495392 
	C43.171143,434.206787 44.080513,441.303436 46.396614,447.548615 
	C56.793934,475.583954 79.939438,491.539337 108.606796,491.857635 
	C158.085709,492.406982 207.574524,492.067078 257.483917,492.031311 
	C306.232758,491.975952 354.556824,492.012238 402.880920,491.987885 
	C415.531891,491.981506 427.606934,489.475983 438.549042,482.813660 
	C459.233429,470.219574 470.485413,451.724915 470.868042,427.576508 
	C471.401245,393.924530 470.985931,360.257782 471.008514,326.597351 
	C471.024048,303.437805 471.093750,280.278290 471.436615,257.244141 
	C476.430023,262.040009 481.128601,266.707977 485.821442,271.381714 
	C492.125641,277.660248 501.520477,278.278198 508.473846,272.830475 
	C510.028564,271.612366 511.493652,270.279846 513.000000,269.000000 
z"/>
<path fill="#5B5B5B" opacity="1.000000" stroke="none" 
	d="
M513.000000,268.533142 
	C511.493652,270.279846 510.028564,271.612366 508.473846,272.830475 
	C501.520477,278.278198 492.125641,277.660248 485.821442,271.381714 
	C481.128601,266.707977 476.430023,262.040009 471.359161,256.898743 
	C469.803284,255.054092 468.714752,253.586075 467.427582,252.320023 
	C439.877472,225.222107 412.301300,198.150711 384.738037,171.066208 
	C346.957092,133.941437 309.173492,96.819298 271.418365,59.668266 
	C267.371094,55.685741 263.002563,52.612610 257.020447,52.969017 
	C257.064819,52.889603 257.090485,52.709473 257.082458,52.259041 
	C257.038666,41.918999 257.002899,32.029388 256.967133,22.139782 
	C272.289856,22.552839 284.829132,28.829067 295.417603,39.769787 
	C306.769714,51.499523 318.392242,62.970253 330.005096,74.444366 
	C349.638916,93.843628 369.356934,113.157654 389.041595,132.505493 
	C408.369720,151.502960 427.705353,170.492813 447.028503,189.495361 
	C467.895508,210.016159 488.749023,230.550644 509.623352,251.063995 
	C510.443085,251.869553 511.417023,252.518173 512.659546,253.119965 
	C513.000000,258.022095 513.000000,263.044189 513.000000,268.533142 
z"/>
<path fill="#6E6E6E" opacity="1.000000" stroke="none" 
	d="
M256.543243,22.088284 
	C257.002899,32.029388 257.038666,41.918999 256.667358,52.300446 
	C250.726303,52.870136 246.522141,55.574291 242.702194,59.330776 
	C177.251602,123.693848 111.766235,188.021530 46.325539,252.394638 
	C44.953224,253.744583 44.019398,255.540268 42.881004,257.127991 
	C38.225685,261.614136 33.527004,266.056274 28.924379,270.595825 
	C20.248390,279.152954 10.492773,278.730042 2.863690,269.418640 
	C2.561746,269.050079 2.051750,268.852020 1.319346,268.787262 
	C1.000000,263.977905 1.000000,258.955811 0.999998,253.466858 
	C2.223361,252.276749 3.660097,251.768646 4.638459,250.798355 
	C22.618917,232.966278 40.492542,215.026337 58.495865,197.217468 
	C77.650032,178.270218 96.929276,159.449463 116.129425,140.548615 
	C134.397644,122.565155 152.609314,104.524231 170.892044,86.555573 
	C187.985016,69.756248 205.021729,52.896843 222.312256,36.302544 
	C231.668381,27.323166 243.117859,22.687542 256.543243,22.088284 
z"/>
<path fill="#EFEFEF" opacity="1.000000" stroke="none" 
	d="
M42.935593,257.585724 
	C44.019398,255.540268 44.953224,253.744583 46.325539,252.394638 
	C111.766235,188.021530 177.251602,123.693848 242.702194,59.330776 
	C246.522141,55.574291 250.726303,52.870136 256.675385,52.750881 
	C257.090485,52.709473 257.064819,52.889603 257.024506,53.434578 
	C256.990295,102.251160 256.996399,150.522766 256.542908,198.882721 
	C247.254044,198.992096 238.424591,198.987686 229.595490,199.041275 
	C220.690903,199.095306 217.072128,202.649933 217.049683,211.440109 
	C217.011398,226.433823 217.038208,241.427719 217.037689,256.421539 
	C217.037628,258.190063 217.037674,259.958588 217.037674,262.250366 
	C214.355499,262.250366 212.392181,262.250214 210.428864,262.250397 
	C195.768234,262.251648 181.107346,262.200500 166.447067,262.273560 
	C157.424637,262.318512 153.903946,265.812134 153.886841,274.610229 
	C153.850861,293.102509 153.849213,311.595032 153.889053,330.087311 
	C153.907654,338.726501 157.325790,342.133545 166.057266,342.167389 
	C181.050873,342.225464 196.044861,342.185577 211.038681,342.186798 
	C212.824387,342.186951 214.610092,342.186798 217.037704,342.186798 
	C217.037704,344.572479 217.037689,346.349060 217.037720,348.125610 
	C217.037903,362.619629 217.032196,377.113678 217.040192,391.607697 
	C217.046143,402.383759 220.189606,405.460846 231.062302,405.578217 
	C239.705765,405.671509 248.347931,405.886566 256.992371,406.513245 
	C257.015778,435.352722 257.037476,463.726501 257.059174,492.100311 
	C207.574524,492.067078 158.085709,492.406982 108.606796,491.857635 
	C79.939438,491.539337 56.793934,475.583954 46.396614,447.548615 
	C44.080513,441.303436 43.171143,434.206787 43.141239,427.495392 
	C42.889553,371.012329 42.993332,314.527649 42.935593,257.585724 
z"/>
<path fill="#E5E5E9" opacity="1.000000" stroke="none" 
	d="
M257.002472,198.794373 
	C256.996399,150.522766 256.990295,102.251160 256.980103,53.513992 
	C263.002563,52.612610 267.371094,55.685741 271.418365,59.668266 
	C309.173492,96.819298 346.957092,133.941437 384.738037,171.066208 
	C412.301300,198.150711 439.877472,225.222107 467.427582,252.320023 
	C468.714752,253.586075 469.803284,255.054092 471.061798,256.773407 
	C471.093750,280.278290 471.024048,303.437805 471.008514,326.597351 
	C470.985931,360.257782 471.401245,393.924530 470.868042,427.576508 
	C470.485413,451.724915 459.233429,470.219574 438.549042,482.813660 
	C427.606934,489.475983 415.531891,491.981506 402.880920,491.987885 
	C354.556824,492.012238 306.232758,491.975952 257.483917,492.031311 
	C257.037476,463.726501 257.015778,435.352722 257.048248,406.365234 
	C257.102417,405.751526 257.053497,405.438904 257.497742,405.575653 
	C267.987457,405.628418 278.032959,405.544403 288.213989,405.538635 
	C288.597748,405.615570 288.742584,405.492615 289.159271,405.182190 
	C294.701080,403.553802 297.008209,399.965210 297.000122,394.681152 
	C296.983307,383.696259 296.996490,372.711273 296.997070,361.726349 
	C296.997406,355.447327 296.997131,349.168335 296.997131,342.338501 
	C299.304260,342.338501 301.093201,342.338684 302.882172,342.338470 
	C318.028076,342.336639 333.174591,342.416992 348.319611,342.300446 
	C356.757416,342.235535 360.168304,338.787018 360.200165,330.426636 
	C360.271820,311.619354 360.274933,292.811432 360.196075,274.004181 
	C360.162170,265.914215 356.335999,262.164459 348.196472,262.128021 
	C333.217316,262.061005 318.237640,262.108093 303.258179,262.107635 
	C301.317017,262.107574 299.375824,262.107605 296.997162,262.107605 
	C296.997162,259.747559 296.997284,257.955719 296.997131,256.163879 
	C296.995911,240.685104 297.045349,225.206100 296.968872,209.727692 
	C296.937378,203.357635 293.065399,199.146317 286.936890,199.070160 
	C276.957611,198.946106 266.974396,199.138870 257.029968,199.097870 
	C257.067047,198.997803 257.002472,198.794373 257.002472,198.794373 
z"/>
<path fill="#FF676A" opacity="1.000000" stroke="none" 
	d="
M257.046539,405.899536 
	C248.347931,405.886566 239.705765,405.671509 231.062302,405.578217 
	C220.189606,405.460846 217.046143,402.383759 217.040192,391.607697 
	C217.032196,377.113678 217.037903,362.619629 217.037720,348.125610 
	C217.037689,346.349060 217.037704,344.572479 217.037704,342.186798 
	C214.610092,342.186798 212.824387,342.186951 211.038681,342.186798 
	C196.044861,342.185577 181.050873,342.225464 166.057266,342.167389 
	C157.325790,342.133545 153.907654,338.726501 153.889053,330.087311 
	C153.849213,311.595032 153.850861,293.102509 153.886841,274.610229 
	C153.903946,265.812134 157.424637,262.318512 166.447067,262.273560 
	C181.107346,262.200500 195.768234,262.251648 210.428864,262.250397 
	C212.392181,262.250214 214.355499,262.250366 217.037674,262.250366 
	C217.037674,259.958588 217.037628,258.190063 217.037689,256.421539 
	C217.038208,241.427719 217.011398,226.433823 217.049683,211.440109 
	C217.072128,202.649933 220.690903,199.095306 229.595490,199.041275 
	C238.424591,198.987686 247.254044,198.992096 256.542908,198.882721 
	C257.002472,198.794373 257.067047,198.997803 257.034180,199.554108 
	C257.018707,268.553253 257.036102,336.996094 257.053497,405.438904 
	C257.053497,405.438904 257.102417,405.751526 257.046539,405.899536 
z"/>
<path fill="#FF0C6C" opacity="1.000000" stroke="none" 
	d="
M257.497742,405.575653 
	C257.036102,336.996094 257.018707,268.553253 256.997070,199.654175 
	C266.974396,199.138870 276.957611,198.946106 286.936890,199.070160 
	C293.065399,199.146317 296.937378,203.357635 296.968872,209.727692 
	C297.045349,225.206100 296.995911,240.685104 296.997131,256.163879 
	C296.997284,257.955719 296.997162,259.747559 296.997162,262.107605 
	C299.375824,262.107605 301.317017,262.107574 303.258179,262.107635 
	C318.237640,262.108093 333.217316,262.061005 348.196472,262.128021 
	C356.335999,262.164459 360.162170,265.914215 360.196075,274.004181 
	C360.274933,292.811432 360.271820,311.619354 360.200165,330.426636 
	C360.168304,338.787018 356.757416,342.235535 348.319611,342.300446 
	C333.174591,342.416992 318.028076,342.336639 302.882172,342.338470 
	C301.093201,342.338684 299.304260,342.338501 296.997131,342.338501 
	C296.997131,349.168335 296.997406,355.447327 296.997070,361.726349 
	C296.996490,372.711273 296.983307,383.696259 297.000122,394.681152 
	C297.008209,399.965210 294.701080,403.553802 289.029419,405.133392 
	C288.308044,405.155914 288.159393,405.259216 288.078430,405.460388 
	C278.032959,405.544403 267.987457,405.628418 257.497742,405.575653 
z"/>
<path fill="#FF676A" opacity="1.000000" stroke="none" 
	d="
M288.213989,405.538635 
	C288.159393,405.259216 288.308044,405.155914 288.654236,405.199219 
	C288.742584,405.492615 288.597748,405.615570 288.213989,405.538635 
z"/>
</svg>